# AST/ASF file generated using VICON BodyLanguage
# -----------------------------------------------
:version 1.10
:name VICON
:units
  mass 1.0
  length 0.45
  angle deg
:documentation
   .ast/.asf automatically generated from VICON data using
   VICON BodyBuilder and BodyLanguage model FoxedUp or BRILLIANT.MOD
:root
   order TX TY TZ RX RY RZ
   axis XYZ
   position 0 0 0  
   orientation 0 0 0 
:bonedata
  begin
     id 1 
     name lhipjoint
     direction 0.645893 -0.654526 0.392961 
     length 2.38111 
     axis 0 0 0  XYZ
  end
  begin
     id 2 
     name lfemur
     direction 0.34202 -0.939693 0  
     length 6.6822  
     axis 0 0 20  XYZ
    dof rx ry rz
    limits (-160.0 20.0)
           (-70.0 70.0)
           (-60.0 70.0)
  end
  begin
     id 3 
     name ltibia
     direction 0.34202 -0.939693 0   
     length 6.93904   
     axis 0 0 20   XYZ
    dof rx
    limits (-10.0 170.0)
  end
  begin
     id 4 
     name lfoot
     direction 0.0694967 -0.190941 0.979138   
     length 2.13616   
     axis -90 7.62852e-016 20   XYZ
    dof rx rz
    limits (-45.0 90.0)
           (-70.0 20.0)
  end
  begin
     id 5 
     name ltoes
     direction 1.535e-011 -4.2202e-011 1   
     length 1.07536   
     axis -90 7.62852e-016 20   XYZ
    dof rx
    limits (-90.0 20.0)
  end
  begin
     id 6 
     name rhipjoint
     direction -0.700219 -0.612087 0.367481   
     length 2.54621  
     axis 0 0 0  XYZ 
  end
  begin
     id 7 
     name rfemur
     direction -0.34202 -0.939693 0   
     length 6.55353   
     axis 0 0 -20   XYZ
    dof rx ry rz
    limits (-160.0 20.0)
           (-70.0 70.0)
           (-70.0 60.0)
  end
  begin
     id 8 
     name rtibia
     direction -0.34202 -0.939693 0   
     length 6.8736   
     axis 0 0 -20   XYZ
    dof rx
    limits (-10.0 170.0)
 end
 begin
     id 9 
     name rfoot
     direction -0.0679995 -0.186827 0.980037   
     length 2.1218  
     axis -90 -7.62852e-016 -20   XYZ
    dof rx rz
    limits (-45.0 90.0)
           (-20.0 70.0)
  end
  begin
     id 10 
     name rtoes
     direction -1.53589e-011 -4.21772e-011 1   
     length 1.06864   
     axis -90 -7.62852e-016 -20   XYZ
    dof rx
    limits (-90.0 20.0)
  end
  begin
     id 11 
     name lowerback
     direction -0.0416607 0.996347 -0.0745409   
     length 2.12205   
     axis 0 0 0   XYZ
    dof rx ry rz
    limits (-20.0 45.0)
           (-30.0 30.0)
           (-30.0 30.0)
  end
  begin
     id 12 
     name upperback
     direction -0.000153993 0.999276 -0.0380568   
     length 2.12759   
     axis 0 0 0   XYZ
    dof rx ry rz
    limits (-20.0 45.0)
           (-30.0 30.0)
           (-30.0 30.0)
  end
  begin
     id 13 
     name thorax
     direction 0.0187671 0.999821 -0.00241421   
     length 2.13704   
     axis 0 0 0   XYZ
    dof rx ry rz
    limits (-20.0 45.0)
           (-30.0 30.0)
           (-30.0 30.0)
  end
  begin
     id 14 
     name lowerneck
     direction 0.0268157 0.964865 0.261374   
     length 1.65253   
     axis 0 0 0   XYZ
    dof rx ry rz
    limits (-20.0 45.0)
           (-30.0 30.0)
           (-30.0 30.0)
  end
  begin
     id 15 
     name upperneck
     direction 0.00263774 0.939908 -0.341418   
     length 1.72375   
     axis 0 0 0   XYZ
    dof rx ry rz
    limits (-20.0 45.0)
           (-30.0 30.0)
           (-30.0 30.0)
  end
  begin
     id 16
     name head
     direction -0.00526001 0.989001 -0.147818  
     length 1.74878  
     axis 0 0 0   XYZ
    dof rx ry rz
    limits (-20.0 45.0)
           (-30.0 30.0)
           (-30.0 30.0)
  end
  begin
     id 17 
     name lclavicle
     direction 0.881214 0.461162 -0.103884  
     length 3.25108  
     axis 0 0 0   XYZ
    dof ry rz
    limits (-20.0 10.0)
           (0.0 20.0)
  end
  begin
     id 18 
     name lhumerus
     direction 1 -4.4899e-011 3.38092e-027   
     length 4.87408   
     axis 180 -30 -90   XYZ
    dof rx ry rz
    limits (-60.0 90.0)
           (-90.0 90.0)
           (-90.0 90.0)
  end
  begin
     id 19
     name lradius
     direction 1 -4.48931e-011 9.96288e-027   
     length 2.76729   
     axis 180 -30 -90   XYZ
    dof rx
    limits (-10.0 170.0)
  end
  begin
     id 20
     name lwrist
     direction 1 -4.4896e-011 1.50617e-026   
     length 1.38364   
     axis -9.31234e-015 90 90   XYZ
    dof ry
    limits (-180.0 0.0)
 end
  begin
     id 21 
     name lhand
     direction 1 -4.49038e-011 3.01286e-026   
     length 0.98922   
     axis -1.92217e-014 90 90   XYZ
    dof rx rz
    limits (-90.0 90.0)
           (-45.0 45.0)
  end
  begin
     id 22 
     name lfingers
     direction 1 -4.49051e-011 6.02588e-026   
     length 0.797535   
     axis -3.84436e-014 90 90   XYZ
    dof rx
    limits (0.0 90.0)
  end
  begin
     id 23
     name lthumb
     direction 0.707107 -6.34901e-011 0.707107   
     length 1.14511   
     axis -90 45 2.19363e-014   XYZ
    dof rx rz
    limits (-45.0 45.0)
           (-45.0 45.0)
  end
  begin
     id 24 
     name rclavicle
     direction -0.893894 0.441652 -0.0767889   
     length 3.29361  
     axis 0 0 0   XYZ 
    dof ry rz
    limits (-10.0 20.0)
           (-20.0 0.0)
  end
  begin
     id 25 
     name rhumerus
     direction -1 -4.48945e-011 8.0491e-028  
     length 4.71404   
     axis 180 30 90   XYZ
    dof rx ry rz
    limits (-90.0 60.0)
           (-90.0 90.0)
           (-90.0 90.0)
  end
  begin
     id 26 
     name rradius
     direction -1 -4.48986e-011 9.27795e-027   
     length 2.83468   
     axis 180 30 90   XYZ
    dof rx
    limits (-10.0 170.0)
  end
  begin
     id 27 
     name rwrist
     direction -1 -4.49029e-011 1.5064e-026   
     length 1.41734   
     axis -9.31234e-015 -90 -90   XYZ
    dof ry
    limits (-180.0 0.0)
  end
  begin
     id 28
     name rhand
     direction -1 -4.48857e-011 3.01165e-026   
     length 0.868195   
     axis -1.92217e-014 -90 -90   XYZ
    dof rx rz
    limits (-90.0 90.0)
           (-45.0 45.0)
  end
  begin
     id 29
     name rfingers
     direction -1 -4.49048e-011 6.02585e-026   
     length 0.699961   
     axis -3.84436e-014 -90 -90   XYZ
    dof rx
    limits (0.0 90.0)
  end
  begin
     id 30
     name rthumb
     direction -0.707107 -6.34854e-011 0.707107   
     length 1.00501   
     axis -90 -45 -2.19363e-014   XYZ
    dof rx rz
    limits (-45.0 45.0)
           (-45.0 45.0)
  end
:hierarchy
  begin
    root lhipjoint rhipjoint lowerback
    lhipjoint lfemur
    lfemur ltibia
    ltibia lfoot
    lfoot ltoes
    rhipjoint rfemur
    rfemur rtibia
    rtibia rfoot
    rfoot rtoes
    lowerback upperback
    upperback thorax
    thorax lowerneck lclavicle rclavicle
    lowerneck upperneck
    upperneck head
    lclavicle lhumerus
    lhumerus lradius
    lradius lwrist
    lwrist lhand lthumb
    lhand lfingers
    rclavicle rhumerus
    rhumerus rradius
    rradius rwrist
    rwrist rhand rthumb
    rhand rfingers
  end

#!OML:ASF H:\ManfredObstacles\Project 1\Capture day 2\Session 1\male.ASF
:FULLY-SPECIFIED
:DEGREES
51
root 0.896049 15.5073 17.7651 -171.865 6.41271 178.253
lowerback 2.38926 0.948524 -9.08518
upperback 2.17566 1.26442 4.95129
thorax 0.64141 0.566406 10.3947
lowerneck -45.8892 0.872544 1.48495
upperneck 40.5113 7.13218 -8.70017
head 26.9779 1.7335 -3.07955
rclavicle -1.98785e-014 4.13472e-014
rhumerus -53.5462 16.4418 -78.6133
rradius 94.6971
rwrist 2.36385
rhand -14.5507 -2.01522
rfingers 7.12502
rthumb 11.598 -31.6743
lclavicle -1.98785e-014 4.13472e-014
lhumerus -55.6264 -23.7465 108.146
lradius 102.328
lwrist -18.6409
lhand -12.174 5.85618
lfingers 7.12502
lthumb 13.8893 35.3724
rfemur -25.5037 6.21097 22.4442
rtibia 44.3873
rfoot -10.8097 -18.7037
rtoes -25.8329
lfemur -9.49657 4.70221 -22.224
ltibia 82.2924
lfoot 21.5135 7.55674
ltoes -1.98152
52
root 0.907217 15.4582 17.4032 -171.962 6.32399 178.663
lowerback 2.78024 0.966989 -8.05282
upperback 2.17741 1.28237 4.74829
thorax 0.436451 0.600537 9.54839
lowerneck -46.1791 0.768327 1.06037
upperneck 40.7853 7.04138 -8.11882
head 27.2175 1.70209 -2.69603
rclavicle -1.51076e-014 -7.15625e-014
rhumerus -51.5127 17.7462 -79.9838
rradius 94.6348
rwrist 2.78419
rhand -14.7721 -2.23335
rfingers 7.12502
rthumb 11.3846 -31.9043
lclavicle -1.51076e-014 -7.15625e-014
lhumerus -56.4121 -22.168 106.997
lradius 101.859
lwrist -18.4097
lhand -12.1037 6.24261
lfingers 7.12502
lthumb 13.957 35.7541
rfemur -23.6757 6.13597 23.0091
rtibia 44.3383
rfoot -11.6753 -19.501
rtoes -26.5674
lfemur -11.8854 4.92147 -21.3708
ltibia 85.2158
lfoot 20.3938 8.31091
ltoes -1.88348
53
root 0.919612 15.4233 17.0417 -171.94 6.21794 179.024
lowerback 3.06215 0.966704 -7.03952
upperback 2.11908 1.28187 4.48667
thorax 0.236332 0.621825 8.65885
lowerneck -46.4171 0.64932 0.64596
upperneck 41.0831 6.90381 -7.49689
head 27.4658 1.66572 -2.29981
rclavicle 1.55052e-014 8.11041e-014
rhumerus -49.6299 19.035 -81.4207
rradius 94.7387
rwrist 3.24705
rhand -14.9359 -2.37749
rfingers 7.12502
rthumb 11.2265 -32.0571
lclavicle 1.55052e-014 8.11041e-014
lhumerus -57.2933 -20.7272 105.756
lradius 101.665
lwrist -18.2899
lhand -12.0766 6.38974
lfingers 7.12502
lthumb 13.9832 35.8995
rfemur -21.8386 6.13126 23.516
rtibia 44.0023
rfoot -12.2569 -20.2863
rtoes -27.2298
lfemur -14.4598 5.07938 -20.6095
ltibia 87.7932
lfoot 19.3119 9.15961
ltoes -1.74232
54
root 0.933037 15.4036 16.6792 -171.803 6.11065 179.331
lowerback 3.23143 0.955593 -6.06361
upperback 2.00212 1.27027 4.1699
thorax 0.0423044 0.633151 7.74167
lowerneck -46.5844 0.541027 0.27781
upperneck 41.3757 6.73928 -6.86604
head 27.6976 1.63259 -1.90772
rclavicle 3.27995e-014 6.83819e-014
rhumerus -47.9198 20.3064 -82.9191
rradius 94.9984
rwrist 3.7296
rhand -15.0417 -2.44659
rfingers 7.12502
rthumb 11.1246 -32.1317
lclavicle 3.27995e-014 6.83819e-014
lhumerus -58.2566 -19.4193 104.441
lradius 101.739
lwrist -18.2909
lhand -12.0676 6.28241
lfingers 7.12502
lthumb 13.9918 35.7915
rfemur -20.0144 6.20534 23.9587
rtibia 43.4192
rfoot -12.5455 -20.9965
rtoes -27.8509
lfemur -17.1831 5.1864 -19.9592
ltibia 89.9769
lfoot 18.2699 10.0896
ltoes -1.61209
55
root 0.946975 15.3994 16.3146 -171.574 6.01202 179.581
lowerback 3.30375 0.940003 -5.13757
upperback 1.83374 1.25336 3.80603
thorax -0.148479 0.6373 6.81284
lowerneck -46.6756 0.455963 -0.0323329
upperneck 41.6474 6.56145 -6.24131
head 27.8979 1.60698 -1.52621
rclavicle -1.05356e-014 -3.18055e-014
rhumerus -46.3946 21.5709 -84.4704
rradius 95.3932
rwrist 4.18772
rhand -15.0872 -2.45666
rfingers 7.12502
rthumb 11.0806 -32.1441
lclavicle -1.05356e-014 -3.18055e-014
lhumerus -59.2832 -18.2312 103.073
lradius 102.055
lwrist -18.3994
lhand -12.049 5.95452
lfingers 7.12502
lthumb 14.0097 35.4624
rfemur -18.2056 6.34 24.3337
rtibia 42.6244
rfoot -12.5272 -21.5656
rtoes -28.4728
lfemur -19.9961 5.244 -19.4302
ltibia 91.7233
lfoot 17.2693 11.0776
ltoes -1.52221
56
root 0.960731 15.4108 15.9468 -171.283 5.92521 179.778
lowerback 3.30603 0.920617 -4.27156
upperback 1.62386 1.23073 3.41216
thorax -0.341395 0.634506 5.89581
lowerneck -46.6979 0.398698 -0.293981
upperneck 41.8946 6.38809 -5.62653
head 28.0648 1.59209 -1.15081
rclavicle 0 5.80451e-014
rhumerus -45.0621 22.8629 -86.0579
rradius 95.8985
rwrist 4.56186
rhand -15.0798 -2.43115
rfingers 7.12502
rthumb 11.0878 -32.1183
lclavicle 0 5.80451e-014
lhumerus -60.3525 -17.1331 101.683
lradius 102.573
lwrist -18.591
lhand -12.002 5.47418
lfingers 7.12502
lthumb 14.0551 34.9789
rfemur -16.401 6.50251 24.6402
rtibia 41.6451
rfoot -12.1873 -21.9355
rtoes -29.1279
lfemur -22.8275 5.2462 -19.0215
ltibia 92.9977
lfoot 16.3124 12.0915
ltoes -1.48279
57
root 0.973618 15.4374 15.5748 -170.955 5.84536 179.93
lowerback 3.26676 0.898241 -3.46193
upperback 1.37831 1.20314 2.99922
thorax -0.546962 0.625854 4.99862
lowerneck -46.6606 0.361152 -0.523578
upperneck 42.1227 6.21769 -5.01406
head 28.2036 1.58561 -0.775571
rclavicle 3.97569e-016 -1.98785e-014
rhumerus -43.937 24.2 -87.6737
rradius 96.4896
rwrist 4.80737
rhand -15.0283 -2.38777
rfingers 7.12502
rthumb 11.1374 -32.0722
lclavicle 3.97569e-016 -1.98785e-014
lhumerus -61.4586 -16.1115 100.299
lradius 103.251
lwrist -18.8162
lhand -11.9154 4.91851
lfingers 7.12502
lthumb 14.1385 34.4174
rfemur -14.6087 6.65449 24.8811
rtibia 40.5482
rfoot -11.5445 -22.0698
rtoes -29.8221
lfemur -25.6055 5.17997 -18.7212
ltibia 93.8358
lfoot 15.3484 13.1316
ltoes -1.48791
58
root 0.98512 15.4785 15.1976 -170.609 5.76057 180.048
lowerback 3.20603 0.870146 -2.69909
upperback 1.1022 1.16763 2.57775
thorax -0.771359 0.610329 4.12554
lowerneck -46.5804 0.332075 -0.740648
upperneck 42.3406 6.04588 -4.39344
head 28.3261 1.58388 -0.393052
rclavicle 1.90833e-014 1.43125e-014
rhumerus -43.0299 25.594 -89.309
rradius 97.1435
rwrist 4.9049
rhand -14.9465 -2.33453
rfingers 7.12502
rthumb 11.2163 -32.0147
lclavicle 1.90833e-014 1.43125e-014
lhumerus -62.5965 -15.1557 98.9455
lradius 104.046
lwrist -19.0172
lhand -11.7963 4.35345
lfingers 7.12502
lthumb 14.2533 33.8443
rfemur -12.8027 6.76219 25.0632
rtibia 39.3045
rfoot -10.5799 -21.9261
rtoes -30.5325
lfemur -28.2802 5.02867 -18.508
ltibia 94.1666
lfoot 14.4414 14.1291
ltoes -1.52239
59
root 0.99633 15.4984 14.8304 -170.268 5.70617 180.154
lowerback 3.14529 0.839486 -1.97049
upperback 0.843181 1.13097 2.17206
thorax -0.97908 0.591173 3.29314
lowerneck -46.5039 0.32881 -0.951131
upperneck 42.5461 5.93417 -3.80312
head 28.4519 1.59741 -0.00688494
rclavicle -2.48481e-015 -2.38542e-015
rhumerus -42.0031 27.0824 -90.8289
rradius 97.8655
rwrist 4.98184
rhand -14.7845 -2.33704
rfingers 7.12502
rthumb 11.3726 -32.0087
lclavicle -2.48481e-015 -2.38542e-015
lhumerus -63.7132 -14.1889 97.5107
lradius 104.902
lwrist -19.3082
lhand -11.6283 3.73765
lfingers 7.12502
lthumb 14.4152 33.2171
rfemur -10.9558 6.92494 25.2549
rtibia 37.9587
rfoot -9.58134 -21.8298
rtoes -31.2436
lfemur -31.0085 4.96099 -18.2822
ltibia 94.3561
lfoot 13.6382 14.9977
ltoes -1.52675
